<svg viewBox="0 0 379.796 68.056" xmlns="http://www.w3.org/2000/svg"><g transform="matrix(.9579 0 0 .9579 -4.792 -15.539)" fill="#4ca617"><circle cx="50" cy="71.752" r="4.697"/><path d="M94.739 66.87c-.959-3.292-1.951-6.696-3.362-9.631-3.021-6.229-5.406-10.872-7.269-14.151a33.574 33.574 0 003.795-8.511c.174-.598 4.186-14.657-1.224-17.861-1.326-.802-2.775-.497-5.195.011-2.688.57-5.05 1.563-9.03 3.796a104.368 104.368 0 00-5.02 3.021c-3.33-1.96-7.124-3.271-11.103-3.932a1.486 1.486 0 00-.586-.119c-.03 0-.058.007-.088.009a37.778 37.778 0 00-5.452-.413c-.067-.009-.134-.021-.204-.021a1.55 1.55 0 00-.322.036c-5.994.076-12.005 1.559-17.114 4.44a105.271 105.271 0 00-5.022-3.022c-3.979-2.231-6.341-3.225-9.05-3.8-2.398-.504-3.846-.808-5.164-.012-5.419 3.21-1.407 17.27-1.234 17.862a33.597 33.597 0 003.796 8.516c-1.862 3.279-4.247 7.923-7.271 14.155-1.409 2.931-2.401 6.335-3.36 9.627l-.03.104a5.683 5.683 0 001.09 5.231 5.711 5.711 0 004.989 2.029 49.188 49.188 0 019.606-.093l2.168.177c5.03.409 6.642.54 11.281 1.445 1.904 1.618 4.465 3.587 7.732 5.038.985.434 1.949.814 2.867 1.131 1.623.561 3.329.841 5.035.841s3.412-.28 5.035-.841a37.103 37.103 0 002.871-1.133c3.264-1.45 5.824-3.418 7.729-5.036 4.64-.905 6.251-1.036 11.281-1.445l2.169-.177a49.1 49.1 0 019.605.093 5.708 5.708 0 004.989-2.029 5.685 5.685 0 001.09-5.232zm-60.24-10.892a3 3 0 116 0 3 3 0 01-6 0zm28.002 3a3 3 0 110-6 3 3 0 010 6zm28.874 11.307a2.699 2.699 0 01-2.38.965 56.034 56.034 0 00-3.862-.268c-.312-.615-.628-1.259-.964-1.95-1.892-3.9-4.247-8.755-8.608-13.152-4.975-5.015-8.793-7.172-12.178-8.756a5.01 5.01 0 00-2.133-.475 5.104 5.104 0 00-4.613 2.949l-3.255 7.021c-1.117 2.41-.188 5.293 2.115 6.563 2.221 1.226 3.901 2.463 5.138 3.783 1.982 2.117 3.083 4.277 3.819 6.002a1.491 1.491 0 00-.474.263c-1.886 1.623-4.228 3.467-7.287 4.825-.91.401-1.797.751-2.637 1.041a12.313 12.313 0 01-8.113 0 34.6 34.6 0 01-2.633-1.039c-3.063-1.36-5.405-3.204-7.291-4.827-.051-.044-.112-.074-.169-.111.024-.067.048-.127.072-.195.612-1.724 1.308-3.678 3.443-5.958 1.235-1.32 2.916-2.558 5.136-3.783 2.304-1.271 3.233-4.153 2.116-6.564l-3.255-7.02a5.105 5.105 0 00-4.613-2.949c-.74 0-1.458.159-2.133.475-3.385 1.584-7.203 3.741-12.178 8.756-4.361 4.397-6.717 9.252-8.608 13.152-.335.69-.652 1.334-.963 1.949a56.017 56.017 0 00-3.863.269 2.692 2.692 0 01-2.38-.965 2.649 2.649 0 01-.514-2.473l.029-.104c.926-3.175 1.882-6.459 3.182-9.161 3.242-6.683 5.735-11.508 7.621-14.75a1.5 1.5 0 00-.047-1.583 30.628 30.628 0 01-3.919-8.476c-1.884-6.482-1.94-13.369-.108-14.455.32-.189 1.565.071 3.023.376 2.022.431 4.01 1.137 8.183 3.478a101.69 101.69 0 015.627 3.405c.045.029.094.049.14.073.023.012.045.025.068.035.069.031.139.054.21.074.021.006.041.013.063.018.071.016.142.026.214.031.026.002.051.005.077.006.067.002.133-.002.199-.009.032-.003.063-.005.094-.011a1.52 1.52 0 00.188-.047c.031-.009.062-.017.092-.029.068-.026.134-.059.198-.095.016-.009.033-.014.049-.024 4.495-2.72 9.835-4.195 15.206-4.451v7.043a1.5 1.5 0 003 0v-7.054c.919.035 1.835.099 2.743.206v1.62a1.5 1.5 0 003 0v-1.122c3.399.724 6.624 1.969 9.433 3.762.25.159.529.235.806.235a1.5 1.5 0 00.954-.351 101.154 101.154 0 015.486-3.317c4.175-2.342 6.162-3.048 8.198-3.48 1.445-.304 2.692-.562 3.02-.368 1.822 1.08 1.766 7.967-.119 14.454a30.634 30.634 0 01-3.918 8.471 1.501 1.501 0 00-.047 1.583c1.886 3.242 4.379 8.067 7.619 14.746 1.302 2.706 2.258 5.99 3.184 9.165l.029.103a2.645 2.645 0 01-.512 2.475z"/><path d="M18.229 22.104a1.5 1.5 0 00-1.924 1.02c-.489 1.757-.362 5.542 1.022 10.036.797 2.591 1.749 4.646 2.91 6.285a1.496 1.496 0 002.091.357 1.499 1.499 0 00.356-2.091c-.974-1.374-1.788-3.151-2.49-5.434-.855-2.776-1.143-5.126-1.151-6.683 3.382 1.34 6 3.03 8.147 5.243a1.5 1.5 0 002.152-2.09c-2.852-2.939-6.384-5.051-11.113-6.643zM83.321 23.124a1.5 1.5 0 00-1.924-1.02c-4.729 1.592-8.262 3.703-11.114 6.644a1.5 1.5 0 002.152 2.09c2.147-2.213 4.766-3.903 8.147-5.243-.009 1.557-.296 3.906-1.151 6.683-.702 2.282-1.517 4.06-2.49 5.434a1.5 1.5 0 002.447 1.734c1.161-1.639 2.113-3.694 2.91-6.285 1.386-4.495 1.513-8.28 1.023-10.037z"/></g><path d="M116 8.087c2.676-.334 5.13-.6 7.36-.794 2.23-.195 4.6-.293 7.11-.293 3.066 0 6.119.293 9.158.878 3.039.586 5.757 1.603 8.155 3.053 2.397 1.45 4.335 3.401 5.813 5.855 1.477 2.453 2.216 5.575 2.216 9.367 0 2.175-.293 4.126-.878 5.855-.586 1.729-1.31 3.248-2.175 4.558a18.418 18.418 0 01-2.885 3.43c-1.06.975-2.091 1.798-3.095 2.467l-.418.25 1.129 1.84 2.76 4.601 3.555 5.938 3.554 5.897 2.677 4.558 1.045 1.757h-15.306l-15.807-27.518v27.601H116v-59.3zm13.968 31.198l2.927-1.339c.725-.334 1.59-.752 2.593-1.254a14.547 14.547 0 002.927-1.966 11.609 11.609 0 002.426-2.885c.669-1.115 1.003-2.482 1.003-4.099 0-1.728-.25-3.164-.752-4.307-.502-1.143-1.2-2.063-2.091-2.76-.893-.697-1.938-1.199-3.137-1.505-1.199-.307-2.495-.46-3.889-.46h-.962l-1.045.083v20.492zm57.292 8.949a11.645 11.645 0 00-1.756-.21 35.457 35.457 0 00-1.59-.041c-2.341 0-4.237.362-5.687 1.087-1.45.725-2.174 1.98-2.174 3.764 0 1.115.265 1.993.794 2.634a4.77 4.77 0 001.966 1.422c.78.307 1.603.488 2.467.544.864.056 1.603.084 2.216.084 1.116 0 2.37-.14 3.764-.418zm-4.35-9.2c.447 0 1.046.014 1.799.042.753.028 1.603.07 2.551.125-.056-2.175-.823-3.583-2.3-4.224-1.478-.641-3.388-.962-5.73-.962-1.282 0-2.76.154-4.432.46-1.673.307-3.485.767-5.437 1.38l-1.338-4.6c-.167-.613-.404-1.505-.71-2.676-.308-1.171-.517-2.091-.628-2.76 2.788-.948 5.422-1.631 7.904-2.05 2.48-.418 4.725-.627 6.733-.627 5.91 0 10.482 1.408 13.716 4.224 3.235 2.816 4.851 7.318 4.851 13.508V65.38c-2.174.613-4.683 1.213-7.527 1.798-2.844.586-5.91.878-9.2.878-2.9 0-5.534-.25-7.904-.752s-4.405-1.339-6.106-2.51c-1.7-1.17-3.01-2.704-3.93-4.6-.92-1.896-1.38-4.21-1.38-6.942s.57-5.018 1.714-6.858c1.143-1.84 2.62-3.304 4.433-4.391 1.812-1.087 3.847-1.854 6.105-2.3 2.258-.446 4.53-.67 6.817-.67zm24.34-19.99h-6.19l5.353-10.288h13.466v58.631h-12.63zm12.546 25.76l10.789-21.076h14.302L233.68 44.219a640.615 640.615 0 013.136 5.646c1.087 1.98 2.189 3.973 3.304 5.98 1.115 2.007 2.216 4 3.304 5.98a269.228 269.228 0 003.136 5.562h-14.219zm53.11 3.43a11.645 11.645 0 00-1.756-.21 35.457 35.457 0 00-1.59-.041c-2.341 0-4.237.362-5.687 1.087-1.45.725-2.174 1.98-2.174 3.764 0 1.115.265 1.993.794 2.634a4.77 4.77 0 001.966 1.422c.78.307 1.603.488 2.467.544.864.056 1.603.084 2.216.084 1.116 0 2.37-.14 3.764-.418zm-4.35-9.2c.447 0 1.046.014 1.799.042.753.028 1.603.07 2.551.125-.056-2.175-.823-3.583-2.3-4.224-1.478-.641-3.388-.962-5.73-.962-1.282 0-2.76.154-4.432.46-1.673.307-3.485.767-5.437 1.38l-1.338-4.6c-.167-.613-.404-1.505-.71-2.676-.308-1.171-.517-2.091-.628-2.76 2.788-.948 5.422-1.631 7.904-2.05 2.48-.418 4.725-.627 6.733-.627 5.91 0 10.482 1.408 13.716 4.224 3.235 2.816 4.851 7.318 4.851 13.508V65.38c-2.174.613-4.683 1.213-7.527 1.798-2.844.586-5.91.878-9.2.878-2.9 0-5.534-.25-7.904-.752s-4.405-1.339-6.106-2.51c-1.7-1.17-3.01-2.704-3.93-4.6-.92-1.896-1.38-4.21-1.38-6.942s.57-5.018 1.714-6.858c1.143-1.84 2.62-3.304 4.432-4.391 1.813-1.087 3.848-1.854 6.106-2.3 2.258-.446 4.53-.67 6.817-.67zm38.642-30.361v14.47l-.418 1.756c0-.056.557-.237 1.672-.544 1.116-.307 2.649-.46 4.6-.46 2.9 0 5.576.432 8.03 1.296 2.453.865 4.558 2.189 6.315 3.973 1.756 1.784 3.122 4.057 4.098 6.817s1.464 6.063 1.464 9.91c0 3.012-.349 5.842-1.046 8.49-.697 2.649-1.854 4.977-3.47 6.984-1.618 2.007-3.737 3.596-6.357 4.767-2.621 1.171-5.855 1.757-9.702 1.757h-2.217l-3.93-.167-5.145-.502-5.854-1.004V18.96h-6.942l5.353-10.204zm4.015 48.008c1.338 0 2.607-.167 3.805-.501a7.128 7.128 0 003.095-1.757c.864-.836 1.561-1.951 2.09-3.345.53-1.394.795-3.123.795-5.186 0-2.063-.25-3.833-.752-5.31-.502-1.478-1.171-2.677-2.008-3.597a7.398 7.398 0 00-2.969-2.008 10.506 10.506 0 00-3.638-.627c-.67 0-1.45.056-2.342.167-.892.112-1.59.223-2.091.335v21.495c.613.111 1.24.195 1.882.25.641.057 1.352.085 2.133.085zm48.176-33.455c2.899 0 5.603.404 8.112 1.213 2.51.808 4.67 2.105 6.482 3.889 1.812 1.784 3.235 4.098 4.266 6.942 1.032 2.844 1.547 6.273 1.547 10.288 0 4.014-.515 7.443-1.547 10.287-1.031 2.844-2.453 5.158-4.266 6.942-1.812 1.785-3.972 3.08-6.482 3.89-2.509.808-5.213 1.212-8.112 1.212-2.956 0-5.674-.404-8.155-1.213-2.481-.808-4.628-2.105-6.44-3.889-1.812-1.784-3.234-4.098-4.266-6.942-1.032-2.844-1.547-6.273-1.547-10.287 0-3.96.515-7.347 1.547-10.163 1.032-2.815 2.453-5.13 4.266-6.942 1.812-1.812 3.959-3.136 6.44-3.972 2.481-.837 5.2-1.255 8.155-1.255zm0 33.706c2.509 0 4.474-.836 5.896-2.509 1.422-1.673 2.133-4.628 2.133-8.866 0-4.237-.711-7.206-2.133-8.907-1.422-1.7-3.387-2.551-5.896-2.551-2.454 0-4.42.878-5.897 2.635-1.477 1.756-2.216 4.697-2.216 8.823 0 4.238.724 7.193 2.174 8.866s3.43 2.51 5.939 2.51z" fill="#4ca617"/></svg>