<?xml version="1.0" encoding="UTF-8" standalone="no"?>
<svg
   viewBox="0 0 106.894 106.894"
   version="1.1"
   id="svg12"
   sodipodi:docname="rakabo-head.svg"
   width="106.894"
   height="106.894"
   inkscape:export-filename="/home/emilien/Code/rakabo/the-big-fucking-chat-client/public/logo512.png"
   inkscape:export-xdpi="459.82001"
   inkscape:export-ydpi="459.82001"
   inkscape:version="1.1 (1:1.1+202105261517+ce6663b3b7)"
   xmlns:inkscape="http://www.inkscape.org/namespaces/inkscape"
   xmlns:sodipodi="http://sodipodi.sourceforge.net/DTD/sodipodi-0.dtd"
   xmlns="http://www.w3.org/2000/svg"
   xmlns:svg="http://www.w3.org/2000/svg">
  <defs
     id="defs16" />
  <sodipodi:namedview
     id="namedview14"
     pagecolor="#ffffff"
     bordercolor="#666666"
     borderopacity="1.0"
     inkscape:pageshadow="2"
     inkscape:pageopacity="0.0"
     inkscape:pagecheckerboard="0"
     showgrid="false"
     inkscape:zoom="3.5703379"
     inkscape:cx="133.18067"
     inkscape:cy="45.793986"
     inkscape:window-width="1848"
     inkscape:window-height="1016"
     inkscape:window-x="1992"
     inkscape:window-y="27"
     inkscape:window-maximized="1"
     inkscape:current-layer="svg12" />
  <rect
     style="fill:#4ca617;fill-opacity:1;stroke-width:16.0909;stroke-linecap:round;stroke-linejoin:round"
     id="rect120"
     width="106.894"
     height="106.894"
     x="0"
     y="0" />
  <g
     transform="matrix(0.9579,0,0,0.9579,5.5534365,6.0335882)"
     fill="#4ca617"
     id="g8"
     style="fill:#ffffff">
    <circle
       cx="50"
       cy="71.751999"
       r="4.697"
       id="circle2"
       style="fill:#ffffff" />
    <path
       d="M 94.739,66.87 C 93.78,63.578 92.788,60.174 91.377,57.239 88.356,51.01 85.971,46.367 84.108,43.088 a 33.574,33.574 0 0 0 3.795,-8.511 c 0.174,-0.598 4.186,-14.657 -1.224,-17.861 -1.326,-0.802 -2.775,-0.497 -5.195,0.011 -2.688,0.57 -5.05,1.563 -9.03,3.796 a 104.368,104.368 0 0 0 -5.02,3.021 c -3.33,-1.96 -7.124,-3.271 -11.103,-3.932 a 1.486,1.486 0 0 0 -0.586,-0.119 c -0.03,0 -0.058,0.007 -0.088,0.009 A 37.778,37.778 0 0 0 50.205,19.089 C 50.138,19.08 50.071,19.068 50.001,19.068 a 1.55,1.55 0 0 0 -0.322,0.036 c -5.994,0.076 -12.005,1.559 -17.114,4.44 a 105.271,105.271 0 0 0 -5.022,-3.022 c -3.979,-2.231 -6.341,-3.225 -9.05,-3.8 -2.398,-0.504 -3.846,-0.808 -5.164,-0.012 -5.419,3.21 -1.407,17.27 -1.234,17.862 a 33.597,33.597 0 0 0 3.796,8.516 C 14.029,46.367 11.644,51.011 8.62,57.243 7.211,60.174 6.219,63.578 5.26,66.87 l -0.03,0.104 a 5.683,5.683 0 0 0 1.09,5.231 5.711,5.711 0 0 0 4.989,2.029 49.188,49.188 0 0 1 9.606,-0.093 l 2.168,0.177 c 5.03,0.409 6.642,0.54 11.281,1.445 1.904,1.618 4.465,3.587 7.732,5.038 0.985,0.434 1.949,0.814 2.867,1.131 1.623,0.561 3.329,0.841 5.035,0.841 1.706,0 3.412,-0.28 5.035,-0.841 a 37.103,37.103 0 0 0 2.871,-1.133 c 3.264,-1.45 5.824,-3.418 7.729,-5.036 4.64,-0.905 6.251,-1.036 11.281,-1.445 l 2.169,-0.177 a 49.1,49.1 0 0 1 9.605,0.093 5.708,5.708 0 0 0 4.989,-2.029 5.685,5.685 0 0 0 1.09,-5.232 z M 34.499,55.978 a 3,3 0 1 1 6,0 3,3 0 0 1 -6,0 z m 28.002,3 a 3,3 0 1 1 0,-6 3,3 0 0 1 0,6 z m 28.874,11.307 a 2.699,2.699 0 0 1 -2.38,0.965 56.034,56.034 0 0 0 -3.862,-0.268 c -0.312,-0.615 -0.628,-1.259 -0.964,-1.95 -1.892,-3.9 -4.247,-8.755 -8.608,-13.152 -4.975,-5.015 -8.793,-7.172 -12.178,-8.756 a 5.01,5.01 0 0 0 -2.133,-0.475 5.104,5.104 0 0 0 -4.613,2.949 l -3.255,7.021 c -1.117,2.41 -0.188,5.293 2.115,6.563 2.221,1.226 3.901,2.463 5.138,3.783 1.982,2.117 3.083,4.277 3.819,6.002 A 1.491,1.491 0 0 0 63.98,73.23 c -1.886,1.623 -4.228,3.467 -7.287,4.825 -0.91,0.401 -1.797,0.751 -2.637,1.041 a 12.313,12.313 0 0 1 -8.113,0 34.6,34.6 0 0 1 -2.633,-1.039 c -3.063,-1.36 -5.405,-3.204 -7.291,-4.827 -0.051,-0.044 -0.112,-0.074 -0.169,-0.111 0.024,-0.067 0.048,-0.127 0.072,-0.195 0.612,-1.724 1.308,-3.678 3.443,-5.958 1.235,-1.32 2.916,-2.558 5.136,-3.783 2.304,-1.271 3.233,-4.153 2.116,-6.564 l -3.255,-7.02 A 5.105,5.105 0 0 0 38.749,46.65 c -0.74,0 -1.458,0.159 -2.133,0.475 -3.385,1.584 -7.203,3.741 -12.178,8.756 -4.361,4.397 -6.717,9.252 -8.608,13.152 -0.335,0.69 -0.652,1.334 -0.963,1.949 A 56.017,56.017 0 0 0 11.004,71.251 2.692,2.692 0 0 1 8.624,70.286 2.649,2.649 0 0 1 8.11,67.813 l 0.029,-0.104 c 0.926,-3.175 1.882,-6.459 3.182,-9.161 3.242,-6.683 5.735,-11.508 7.621,-14.75 a 1.5,1.5 0 0 0 -0.047,-1.583 30.628,30.628 0 0 1 -3.919,-8.476 c -1.884,-6.482 -1.94,-13.369 -0.108,-14.455 0.32,-0.189 1.565,0.071 3.023,0.376 2.022,0.431 4.01,1.137 8.183,3.478 a 101.69,101.69 0 0 1 5.627,3.405 c 0.045,0.029 0.094,0.049 0.14,0.073 0.023,0.012 0.045,0.025 0.068,0.035 0.069,0.031 0.139,0.054 0.21,0.074 0.021,0.006 0.041,0.013 0.063,0.018 0.071,0.016 0.142,0.026 0.214,0.031 0.026,0.002 0.051,0.005 0.077,0.006 0.067,0.002 0.133,-0.002 0.199,-0.009 0.032,-0.003 0.063,-0.005 0.094,-0.011 a 1.52,1.52 0 0 0 0.188,-0.047 c 0.031,-0.009 0.062,-0.017 0.092,-0.029 0.068,-0.026 0.134,-0.059 0.198,-0.095 0.016,-0.009 0.033,-0.014 0.049,-0.024 4.495,-2.72 9.835,-4.195 15.206,-4.451 v 7.043 a 1.5,1.5 0 0 0 3,0 v -7.054 c 0.919,0.035 1.835,0.099 2.743,0.206 v 1.62 a 1.5,1.5 0 0 0 3,0 v -1.122 c 3.399,0.724 6.624,1.969 9.433,3.762 0.25,0.159 0.529,0.235 0.806,0.235 a 1.5,1.5 0 0 0 0.954,-0.351 101.154,101.154 0 0 1 5.486,-3.317 c 4.175,-2.342 6.162,-3.048 8.198,-3.48 1.445,-0.304 2.692,-0.562 3.02,-0.368 1.822,1.08 1.766,7.967 -0.119,14.454 a 30.634,30.634 0 0 1 -3.918,8.471 1.501,1.501 0 0 0 -0.047,1.583 c 1.886,3.242 4.379,8.067 7.619,14.746 1.302,2.706 2.258,5.99 3.184,9.165 l 0.029,0.103 a 2.645,2.645 0 0 1 -0.512,2.475 z"
       id="path4"
       style="fill:#ffffff" />
    <path
       d="m 18.229,22.104 a 1.5,1.5 0 0 0 -1.924,1.02 c -0.489,1.757 -0.362,5.542 1.022,10.036 0.797,2.591 1.749,4.646 2.91,6.285 a 1.496,1.496 0 0 0 2.091,0.357 1.499,1.499 0 0 0 0.356,-2.091 c -0.974,-1.374 -1.788,-3.151 -2.49,-5.434 -0.855,-2.776 -1.143,-5.126 -1.151,-6.683 3.382,1.34 6,3.03 8.147,5.243 a 1.5,1.5 0 0 0 2.152,-2.09 C 26.49,25.808 22.958,23.696 18.229,22.104 Z m 65.092,1.02 a 1.5,1.5 0 0 0 -1.924,-1.02 c -4.729,1.592 -8.262,3.703 -11.114,6.644 a 1.5,1.5 0 0 0 2.152,2.09 c 2.147,-2.213 4.766,-3.903 8.147,-5.243 -0.009,1.557 -0.296,3.906 -1.151,6.683 -0.702,2.282 -1.517,4.06 -2.49,5.434 a 1.5,1.5 0 0 0 2.447,1.734 c 1.161,-1.639 2.113,-3.694 2.91,-6.285 1.386,-4.495 1.513,-8.28 1.023,-10.037 z"
       id="path6"
       style="fill:#ffffff" />
  </g>
</svg>
