<?xml version="1.0" encoding="UTF-8" standalone="no"?>
<svg
   viewBox="0 0 106.894 106.894"
   version="1.1"
   id="svg12"
   sodipodi:docname="rakabo-head-for-favicon.svg"
   width="106.894"
   height="106.894"
   inkscape:export-filename="/home/emilien/Code/rakabo/the-big-fucking-chat-client/public/logo512.png"
   inkscape:export-xdpi="459.82001"
   inkscape:export-ydpi="459.82001"
   inkscape:version="1.1 (1:1.1+202105261517+ce6663b3b7)"
   xmlns:inkscape="http://www.inkscape.org/namespaces/inkscape"
   xmlns:sodipodi="http://sodipodi.sourceforge.net/DTD/sodipodi-0.dtd"
   xmlns="http://www.w3.org/2000/svg"
   xmlns:svg="http://www.w3.org/2000/svg">
  <defs
     id="defs16" />
  <sodipodi:namedview
     id="namedview14"
     pagecolor="#ffffff"
     bordercolor="#666666"
     borderopacity="1.0"
     inkscape:pageshadow="2"
     inkscape:pageopacity="0.0"
     inkscape:pagecheckerboard="0"
     showgrid="false"
     inkscape:zoom="3.5703379"
     inkscape:cx="88.366986"
     inkscape:cy="68.200828"
     inkscape:window-width="1848"
     inkscape:window-height="1016"
     inkscape:window-x="1992"
     inkscape:window-y="27"
     inkscape:window-maximized="1"
     inkscape:current-layer="svg12" />
  <rect
     style="fill:#4ca617;fill-opacity:1;stroke-width:16.0909;stroke-linecap:round;stroke-linejoin:round"
     id="rect120"
     width="106.894"
     height="106.894"
     x="0"
     y="0" />
  <path
     d="m 19.194168,9.2163908 c 4.066484,-0.5075506 7.795613,-0.9117676 11.18435,-1.2065725 3.388736,-0.2963245 6.990218,-0.4452465 10.804446,-0.4452465 4.659133,0 9.298511,0.4452465 13.916614,1.33422 4.618103,0.890493 8.74841,2.4359392 12.392441,4.6393762 3.642512,2.203439 6.587522,5.168203 8.833509,8.897333 2.244468,3.72761 3.367462,8.471841 3.367462,14.234212 0,3.305158 -0.445246,6.269923 -1.33422,8.897333 -0.890493,2.62741 -1.990693,4.935702 -3.305158,6.926395 -1.243727,1.909418 -2.715988,3.659799 -4.384082,5.212272 -1.61079,1.481622 -3.177511,2.732263 -4.703202,3.748884 l -0.635198,0.379903 1.715643,2.796088 4.194131,6.991738 5.402223,9.02346 5.400704,8.961157 4.068003,6.926394 1.587996,2.66996 H 64.440637 L 40.420119,57.386594 V 99.329425 H 19.194168 Z m 21.225951,47.4088772 4.447906,-2.034762 c 1.101719,-0.50755 2.416184,-1.142748 3.940356,-1.905594 1.598283,-0.81182 3.091895,-1.815041 4.447906,-2.987559 1.459497,-1.250764 2.704759,-2.731642 3.686581,-4.384082 1.016621,-1.694369 1.524171,-3.771679 1.524171,-6.228893 0,-2.625891 -0.379903,-4.808055 -1.142748,-6.544972 -0.762846,-1.736917 -1.823536,-3.134961 -3.177511,-4.194131 -1.357014,-1.05917 -2.945009,-1.822016 -4.767025,-2.287017 -1.822015,-0.466521 -3.791433,-0.699022 -5.909774,-0.699022 h -1.461867 l -1.587995,0.126128 z"
     fill="#4ca617"
     id="path10"
     sodipodi:nodetypes="ccscccscccccccccccccccccccccssccsccc"
     style="fill:#ffffff;stroke-width:1.51961" />
</svg>
